<svg width="48" height="50" viewBox="0 0 48 50" fill="none" xmlns="http://www.w3.org/2000/svg">
<g clip-path="url(#clip0_36_1269)">
<rect x="4" y="5.21924" width="40" height="40" rx="20" fill="#FFDBD0"/>
<path d="M19 34.2192C18.45 34.2192 17.9792 34.0234 17.5875 33.6317C17.1958 33.2401 17 32.7692 17 32.2192V19.2192H16V17.2192H21V16.2192H27V17.2192H32V19.2192H31V32.2192C31 32.7692 30.8042 33.2401 30.4125 33.6317C30.0208 34.0234 29.55 34.2192 29 34.2192H19ZM29 19.2192H19V32.2192H29V19.2192ZM21 30.2192H23V21.2192H21V30.2192ZM25 30.2192H27V21.2192H25V30.2192Z" fill="#3A0B00"/>
</g>
<defs>
<clipPath id="clip0_36_1269">
<rect x="4" y="5.21924" width="40" height="40" rx="20" fill="white"/>
</clipPath>
</defs>
</svg>
